<?xml version="1.0" encoding="UTF-8"?>
<svg width="18px" height="20px" viewBox="0 0 18 20" version="1.1" xmlns="http://www.w3.org/2000/svg" xmlns:xlink="http://www.w3.org/1999/xlink">
    <title>形状结合</title>
    <defs>
        <linearGradient x1="64.0275262%" y1="14.7633272%" x2="33.5024507%" y2="100%" id="linearGradient-1">
            <stop stop-color="#FFE17B" offset="0%"></stop>
            <stop stop-color="#F8AA2A" offset="100%"></stop>
        </linearGradient>
    </defs>
    <g id="定稿" stroke="none" stroke-width="1" fill="none" fill-rule="evenodd">
        <g id="立创商城首页改版" transform="translate(-154.000000, -965.000000)" fill="url(#linearGradient-1)" fill-rule="nonzero">
            <path d="M160.520532,965.366866 L160.57463,965.372829 C167.161772,966.371044 167.160623,972.647972 167.153912,973.045501 L167.153466,973.065248 C168.686035,972.430822 168.312238,971.003363 168.312238,970.012072 C168.312238,969.853465 168.499136,969.774162 168.611276,969.893117 C172.38663,974.254798 171.751174,978.973343 170.330744,981.07488 C169.39625,982.423036 168.0132,983.771192 165.807795,984.365967 C165.814289,984.362522 165.789244,984.366751 165.732747,984.376353 L165.55259,984.40606 C165.163991,984.467457 164.334005,984.580202 163.067186,984.623128 C162.100716,984.655877 161.220025,984.609808 160.425111,984.484922 C155.939542,983.572934 154.74339,979.806028 154.74339,979.806028 C154.145314,977.545884 154.481732,975.959818 155.341466,974.611662 L155.341466,974.611662 L155.304086,974.611662 C155.304086,974.611662 156.612377,972.430822 155.939542,970.44824 C155.902162,970.368936 155.976921,970.249981 156.051681,970.289633 C156.500238,970.368936 157.546871,970.725801 158.257086,971.677441 C158.406605,971.558486 158.518744,971.479182 158.668263,971.360227 C161.097947,969.536252 160.61201,966.60203 160.350352,965.650391 C160.312972,965.491784 160.425111,965.333178 160.57463,965.372829 Z M163.306641,972.375 C162.537109,972.375 161.888672,972.628906 161.361328,973.136719 C161.057129,973.434082 160.811249,973.843597 160.623688,974.365265 L160.546875,974.595703 L162.082031,974.900391 C162.195312,974.470703 162.347656,974.166992 162.539062,973.989258 C162.730469,973.811523 162.947266,973.722656 163.189453,973.722656 C163.447266,973.722656 163.655273,973.802734 163.813477,973.962891 C163.97168,974.123047 164.050781,974.341797 164.050781,974.619141 C164.050781,975.009766 163.933594,975.319336 163.699219,975.547852 C163.464844,975.776367 163.123047,975.890625 162.673828,975.890625 L162.590332,975.887695 L162.590332,975.887695 L162.503906,975.878906 L162.210938,977.279297 C162.304688,977.263672 162.394531,977.255859 162.480469,977.255859 C162.824219,977.255859 163.097656,977.358398 163.300781,977.563477 C163.503906,977.768555 163.605469,978.046875 163.605469,978.398438 C163.605469,978.800781 163.479492,979.130859 163.227539,979.388672 C162.975586,979.646484 162.658203,979.775391 162.275391,979.775391 C161.986328,979.775391 161.754883,979.6875 161.581055,979.511719 C161.432059,979.361049 161.322525,979.107063 161.252451,978.749761 L161.220703,978.5625 L159.609375,978.755859 C159.710938,979.517578 159.99707,980.106445 160.467773,980.522461 C160.938477,980.938477 161.537109,981.146484 162.263672,981.146484 C163.232422,981.146484 164.023438,980.783203 164.636719,980.056641 C165.085938,979.525391 165.310547,978.943359 165.310547,978.310547 C165.310547,977.978516 165.224609,977.660156 165.052734,977.355469 C164.880859,977.050781 164.613281,976.802734 164.25,976.611328 C164.707031,976.443359 165.066406,976.179688 165.328125,975.820312 C165.589844,975.460938 165.720703,975.058594 165.720703,974.613281 C165.720703,974 165.515625,973.473633 165.105469,973.03418 C164.695312,972.594727 164.095703,972.375 163.306641,972.375 Z" id="形状结合"></path>
        </g>
    </g>
</svg>