<?xml version="1.0" encoding="UTF-8"?>
<svg width="18px" height="20px" viewBox="0 0 18 20" version="1.1" xmlns="http://www.w3.org/2000/svg" xmlns:xlink="http://www.w3.org/1999/xlink">
    <title>形状结合</title>
    <defs>
        <linearGradient x1="64.0275262%" y1="14.7633272%" x2="33.5024507%" y2="100%" id="linearGradient-1">
            <stop stop-color="#F2AA39" offset="0%"></stop>
            <stop stop-color="#F24F39" offset="100%"></stop>
        </linearGradient>
    </defs>
    <g id="定稿" stroke="none" stroke-width="1" fill="none" fill-rule="evenodd">
        <g id="立创商城首页改版" transform="translate(-154.000000, -929.000000)" fill="url(#linearGradient-1)" fill-rule="nonzero">
            <path d="M160.520532,929.366866 L160.57463,929.372829 C167.161772,930.371044 167.160623,936.647972 167.153912,937.045501 L167.153466,937.065248 C168.686035,936.430822 168.312238,935.003363 168.312238,934.012072 C168.312238,933.853465 168.499136,933.774162 168.611276,933.893117 C172.38663,938.254798 171.751174,942.973343 170.330744,945.07488 C169.39625,946.423036 168.0132,947.771192 165.807795,948.365967 C165.814289,948.362522 165.789244,948.366751 165.732747,948.376353 L165.55259,948.40606 C165.163991,948.467457 164.334005,948.580202 163.067186,948.623128 C162.100716,948.655877 161.220025,948.609808 160.425111,948.484922 C155.939542,947.572934 154.74339,943.806028 154.74339,943.806028 C154.145314,941.545884 154.481732,939.959818 155.341466,938.611662 L155.341466,938.611662 L155.304086,938.611662 C155.304086,938.611662 156.612377,936.430822 155.939542,934.44824 C155.902162,934.368936 155.976921,934.249981 156.051681,934.289633 C156.500238,934.368936 157.546871,934.725801 158.257086,935.677441 C158.406605,935.558486 158.518744,935.479182 158.668263,935.360227 C161.097947,933.536252 160.61201,930.60203 160.350352,929.650391 C160.312972,929.491784 160.425111,929.333178 160.57463,929.372829 Z M163.277344,936.375 C162.546875,936.375 161.938477,936.586914 161.452148,937.010742 C161.014453,937.392187 160.719932,937.924717 160.568584,938.60833 L160.523438,938.841797 L162.169922,939.087891 C162.271484,938.560547 162.421875,938.196289 162.621094,937.995117 C162.820312,937.793945 163.052734,937.693359 163.318359,937.693359 C163.580078,937.693359 163.795898,937.783203 163.96582,937.962891 C164.135742,938.142578 164.220703,938.376953 164.220703,938.666016 C164.220703,938.845703 164.169922,939.046875 164.068359,939.269531 C163.966797,939.492188 163.779297,939.755859 163.505859,940.060547 C163.460156,940.110937 163.395293,940.17873 163.31127,940.263926 L163.117676,940.45752 C162.935059,940.638184 162.699219,940.867188 162.410156,941.144531 C161.640625,941.875 161.111328,942.404297 160.822266,942.732422 C160.533203,943.060547 160.291992,943.415039 160.098633,943.795898 C159.943945,944.100586 159.833633,944.418398 159.767695,944.749336 L159.726562,945 L164.947266,945 L165.263672,943.464844 L162.287109,943.464844 C162.443359,943.265625 162.606445,943.077148 162.776367,942.899414 C162.946289,942.72168 163.292969,942.389648 163.816406,941.90332 C164.339844,941.416992 164.716797,941.041016 164.947266,940.775391 C165.267578,940.400391 165.498047,940.041992 165.638672,939.700195 C165.779297,939.358398 165.849609,939.017578 165.849609,938.677734 C165.849609,938.009766 165.621094,937.458984 165.164062,937.025391 C164.707031,936.591797 164.078125,936.375 163.277344,936.375 Z" id="形状结合"></path>
        </g>
    </g>
</svg>