<?xml version="1.0" encoding="UTF-8"?>
<svg width="18px" height="20px" viewBox="0 0 18 20" version="1.1" xmlns="http://www.w3.org/2000/svg" xmlns:xlink="http://www.w3.org/1999/xlink">
    <title>形状结合</title>
    <defs>
        <linearGradient x1="64.0275262%" y1="14.7633272%" x2="33.5024507%" y2="100%" id="linearGradient-1">
            <stop stop-color="#F2AA39" offset="0%"></stop>
            <stop stop-color="#F24F39" offset="100%"></stop>
        </linearGradient>
    </defs>
    <g id="定稿" stroke="none" stroke-width="1" fill="none" fill-rule="evenodd">
        <g id="立创商城首页改版" transform="translate(-154.000000, -892.000000)" fill="url(#linearGradient-1)" fill-rule="nonzero">
            <path d="M160.520532,892.366866 L160.57463,892.372829 C167.161772,893.371044 167.160623,899.647972 167.153912,900.045501 L167.153466,900.065248 C168.686035,899.430822 168.312238,898.003363 168.312238,897.012072 C168.312238,896.853465 168.499136,896.774162 168.611276,896.893117 C172.38663,901.254798 171.751174,905.973343 170.330744,908.07488 C169.39625,909.423036 168.0132,910.771192 165.807795,911.365967 C165.814289,911.362522 165.789244,911.366751 165.732747,911.376353 L165.55259,911.40606 C165.163991,911.467457 164.334005,911.580202 163.067186,911.623128 C162.100716,911.655877 161.220025,911.609808 160.425111,911.484922 C155.939542,910.572934 154.74339,906.806028 154.74339,906.806028 C154.145314,904.545884 154.481732,902.959818 155.341466,901.611662 L155.341466,901.611662 L155.304086,901.611662 C155.304086,901.611662 156.612377,899.430822 155.939542,897.44824 C155.902162,897.368936 155.976921,897.249981 156.051681,897.289633 C156.500238,897.368936 157.546871,897.725801 158.257086,898.677441 C158.406605,898.558486 158.518744,898.479182 158.668263,898.360227 C161.097947,896.536252 160.61201,893.60203 160.350352,892.650391 C160.312972,892.491784 160.425111,892.333178 160.57463,892.372829 Z M165.128906,899.357422 L164.103516,899.357422 C163.376628,900.127279 162.374023,900.810154 161.095703,901.406047 L160.740234,901.566406 L160.423828,903.066406 C160.787109,902.988281 161.198242,902.855469 161.657227,902.667969 C162.024414,902.517969 162.357227,902.355469 162.655664,902.180469 L162.873047,902.046875 L161.625,908 L163.318359,908 L165.128906,899.357422 Z" id="形状结合"></path>
        </g>
    </g>
</svg>